<svg width="61" height="60" viewBox="0 0 61 60" fill="none" xmlns="http://www.w3.org/2000/svg">
<g id="fluent:megaphone-loud-16-regular">
<path id="Vector" d="M41.2662 3.80613C41.7485 3.9266 42.1633 4.23365 42.4192 4.65979C42.6752 5.08593 42.7514 5.59628 42.6312 6.07863L41.6937 9.82864C41.6389 10.0724 41.5359 10.3028 41.3907 10.5062C41.2455 10.7096 41.0612 10.8819 40.8485 11.013C40.6358 11.1442 40.399 11.2315 40.1521 11.2698C39.9052 11.3081 39.6531 11.2967 39.4106 11.2362C39.1682 11.1758 38.9403 11.0674 38.7403 10.9176C38.5403 10.7678 38.3723 10.5795 38.2461 10.3638C38.1199 10.1481 38.0381 9.90938 38.0055 9.66163C37.9729 9.41388 37.9902 9.16212 38.0562 8.92113L38.9937 5.17113C39.1142 4.68884 39.4213 4.27413 39.8474 4.01816C40.2735 3.7622 40.7839 3.68593 41.2662 3.80613ZM52.4525 8.05114C52.804 8.40275 53.0015 8.87958 53.0015 9.37676C53.0015 9.87394 52.804 10.3508 52.4525 10.7024L48.7025 14.4524C48.5295 14.6315 48.3226 14.7743 48.0939 14.8726C47.8651 14.9708 47.6191 15.0226 47.3701 15.0247C47.1212 15.0269 46.8743 14.9795 46.6438 14.8852C46.4134 14.7909 46.2041 14.6517 46.028 14.4756C45.852 14.2996 45.7127 14.0902 45.6185 13.8598C45.5242 13.6294 45.4767 13.3825 45.4789 13.1335C45.4811 12.8845 45.5328 12.6385 45.6311 12.4098C45.7293 12.181 45.8722 11.9741 46.0512 11.8011L49.8012 8.05114C50.1529 7.69963 50.6297 7.50216 51.1269 7.50216C51.6241 7.50216 52.1009 7.69963 52.4525 8.05114ZM24.065 48.8736C25.0061 50.4404 26.4869 51.6097 28.2293 52.1617C29.9717 52.7136 31.8556 52.6104 33.5272 51.8713C35.1989 51.1322 36.543 49.8081 37.3073 48.1478C38.0715 46.4876 38.2031 44.6054 37.6775 42.8549L24.065 48.8736ZM20.615 50.3961L16.8725 52.0536C15.9042 52.4814 14.8292 52.6064 13.7886 52.4124C12.7479 52.2183 11.7903 51.7142 11.0412 50.9661L9.54125 49.4699C8.79403 48.726 8.28924 47.7735 8.09315 46.7375C7.89706 45.7015 8.01884 44.6304 8.4425 43.6649L22.9587 10.6349C23.3027 9.8549 23.8314 9.1704 24.4992 8.64054C25.167 8.11068 25.9537 7.75139 26.7915 7.59374C27.6292 7.43608 28.4928 7.4848 29.3075 7.73567C30.1222 7.98655 30.8635 8.43203 31.4675 9.03363L51.4625 28.9686C52.0649 29.5694 52.5116 30.3081 52.764 31.1205C53.0164 31.933 53.0669 32.7948 52.911 33.6311C52.7551 34.4675 52.3976 35.2532 51.8694 35.9202C51.3412 36.5871 50.6584 37.1152 49.88 37.4586L41.1237 41.3286C42.0493 43.9962 41.938 46.9143 40.8118 49.5035C39.6856 52.0928 37.627 54.1639 35.0445 55.3057C32.4621 56.4475 29.5447 56.5764 26.8716 55.6669C24.1986 54.7574 21.9652 52.876 20.615 50.3961ZM54.875 18.7499H51.125C50.6277 18.7499 50.1508 18.9474 49.7992 19.2991C49.4475 19.6507 49.25 20.1276 49.25 20.6249C49.25 21.1222 49.4475 21.5991 49.7992 21.9507C50.1508 22.3023 50.6277 22.4999 51.125 22.4999H54.875C55.3723 22.4999 55.8492 22.3023 56.2008 21.9507C56.5525 21.5991 56.75 21.1222 56.75 20.6249C56.75 20.1276 56.5525 19.6507 56.2008 19.2991C55.8492 18.9474 55.3723 18.7499 54.875 18.7499ZM26.3937 12.1424L11.8737 45.1724C11.7537 45.4456 11.7192 45.7487 11.7747 46.0419C11.8303 46.3351 11.9733 46.6046 12.185 46.8149L13.6887 48.3149C13.903 48.5278 14.1766 48.6712 14.4737 48.726C14.7708 48.7809 15.0775 48.7448 15.3537 48.6224L48.3612 34.0274C48.5811 33.9301 48.7739 33.7808 48.9231 33.5924C49.0723 33.404 49.1735 33.182 49.2178 32.9458C49.2621 32.7095 49.2482 32.4661 49.1774 32.2364C49.1065 32.0067 48.9809 31.7977 48.8112 31.6274L28.8237 11.6849C28.6517 11.5138 28.4407 11.387 28.2088 11.3154C27.977 11.2438 27.7312 11.2295 27.4926 11.2738C27.2541 11.318 27.0298 11.4195 26.839 11.5695C26.6483 11.7195 26.4968 11.9135 26.3975 12.1349L26.3937 12.1424Z" fill="#242424"/>
</g>
</svg>
