<svg width="61" height="60" viewBox="0 0 61 60" fill="none" xmlns="http://www.w3.org/2000/svg">
<g id="iconoir:bright-star">
<path id="Vector" d="M55.5 30H58M30.5 5V2.5M30.5 57.5V55M50.5 50L48 47.5M50.5 10L48 12.5M10.5 50L13 47.5M10.5 10L13 12.5M3 30H5.5M25.38 24.0575L29.2775 15.795C29.3825 15.5584 29.5539 15.3574 29.7709 15.2163C29.9879 15.0752 30.2412 15.0001 30.5 15.0001C30.7588 15.0001 31.0121 15.0752 31.2291 15.2163C31.4461 15.3574 31.6175 15.5584 31.7225 15.795L35.62 24.0575L44.3325 25.39C45.45 25.56 45.895 27 45.0875 27.825L38.7825 34.25L40.27 43.3275C40.4625 44.495 39.2925 45.3825 38.2925 44.8325L30.5 40.545L22.7075 44.8325C21.7075 45.3825 20.5375 44.495 20.73 43.3275L22.2175 34.2525L15.9125 27.825C15.105 27 15.55 25.56 16.6675 25.39L25.38 24.0575Z" stroke="#242424" stroke-width="4" stroke-linecap="round" stroke-linejoin="round"/>
</g>
</svg>
