<svg width="61" height="60" viewBox="0 0 61 60" fill="none" xmlns="http://www.w3.org/2000/svg">
<g id="icon-park-outline:code-computer">
<g id="Group">
<path id="Vector" d="M26.75 7.5H11.75C10.7554 7.5 9.80161 7.89509 9.09835 8.59835C8.39509 9.30161 8 10.2554 8 11.25V38.75C8 39.7446 8.39509 40.6984 9.09835 41.4016C9.80161 42.1049 10.7554 42.5 11.75 42.5H49.25C50.2446 42.5 51.1984 42.1049 51.9016 41.4016C52.6049 40.6984 53 39.7446 53 38.75V26.25M30.5 42.5V52.5" stroke="#242424" stroke-width="4" stroke-linecap="round" stroke-linejoin="round"/>
<path id="Vector_2" d="M40.5 7.5L35.5 12.5L40.5 17.5M48 7.5L53 12.5L48 17.5M18 52.5H43" stroke="#242424" stroke-width="4" stroke-linecap="round" stroke-linejoin="round"/>
</g>
</g>
</svg>
