<svg width="318" height="85" viewBox="0 0 318 85" fill="none" xmlns="http://www.w3.org/2000/svg">
<path d="M20.4792 67.4409V15.8993H0V6.28982H52.4339V15.8993H31.9546V67.4409H20.4792Z" fill="#F0F0F0"/>
<path d="M56.2179 67.4409V20.7914H66.7223V33.6331L65.4865 29.8767C66.8988 26.7318 69.1056 24.344 72.1069 22.7133C75.167 21.0826 78.9627 20.2672 83.4941 20.2672V30.6629C83.0233 30.5464 82.5819 30.4882 82.17 30.4882C81.758 30.4299 81.3461 30.4008 80.9342 30.4008C76.7559 30.4008 73.431 31.6238 70.9594 34.0699C68.4877 36.4577 67.2519 40.0394 67.2519 44.815V67.4409H56.2179Z" fill="#F0F0F0"/>
<path d="M111.932 68.0524C106.694 68.0524 102.104 67.0332 98.1611 64.9949C94.2771 62.8983 91.2464 60.0445 89.069 56.4337C86.9505 52.8229 85.8912 48.717 85.8912 44.1161C85.8912 39.457 86.9211 35.3511 88.9808 31.7986C91.0993 28.1877 93.9829 25.3631 97.6315 23.3248C101.339 21.2864 105.547 20.2672 110.254 20.2672C114.845 20.2672 118.935 21.2573 122.524 23.2374C126.114 25.2175 128.939 28.013 130.998 31.6238C133.058 35.2347 134.088 39.4861 134.088 44.3782C134.088 44.8441 134.059 45.3683 134 45.9507C134 46.5331 133.97 47.0863 133.911 47.6105H94.6302V40.3597H128.085L123.76 42.631C123.819 39.952 123.26 37.5934 122.083 35.555C120.906 33.5166 119.288 31.915 117.228 30.7503C115.227 29.5855 112.903 29.0031 110.254 29.0031C107.547 29.0031 105.164 29.5855 103.104 30.7503C101.104 31.915 99.5146 33.5457 98.3376 35.6423C97.2195 37.6807 96.6605 40.0976 96.6605 42.8931V44.6403C96.6605 47.4358 97.3078 49.9109 98.6025 52.0658C99.8971 54.2206 101.721 55.8804 104.075 57.0452C106.429 58.21 109.136 58.7924 112.196 58.7924C114.845 58.7924 117.228 58.3847 119.347 57.5694C121.465 56.754 123.348 55.4728 124.996 53.7256L130.91 60.4522C128.792 62.8983 126.114 64.791 122.877 66.1305C119.7 67.4118 116.051 68.0524 111.932 68.0524Z" fill="#F0F0F0"/>
<path d="M159.782 68.0524C154.603 68.0524 150.601 66.742 147.776 64.1213C144.952 61.4423 143.539 57.5111 143.539 52.3279V10.483H154.573V52.0658C154.573 54.2789 155.132 55.9969 156.251 57.2199C157.428 58.443 159.046 59.0545 161.106 59.0545C163.577 59.0545 165.637 58.4138 167.285 57.1326L170.374 64.9075C169.08 65.9558 167.491 66.742 165.607 67.2662C163.724 67.7903 161.782 68.0524 159.782 68.0524ZM135.771 29.8767V21.1408H167.196V29.8767H135.771Z" fill="#F0F0F0"/>
<path d="M176.803 67.4409V20.7914H187.837V67.4409H176.803ZM182.364 13.1038C180.304 13.1038 178.598 12.4632 177.244 11.1819C175.95 9.90065 175.302 8.35731 175.302 6.5519C175.302 4.68825 175.95 3.14491 177.244 1.92189C178.598 0.640629 180.304 0 182.364 0C184.424 0 186.101 0.61151 187.396 1.83453C188.749 2.99931 189.426 4.48441 189.426 6.28982C189.426 8.21171 188.779 9.84241 187.484 11.1819C186.189 12.4632 184.483 13.1038 182.364 13.1038Z" fill="#F0F0F0"/>
<path d="M201.172 67.4409V18.1706C201.172 13.2785 202.613 9.3765 205.497 6.46454C208.439 3.49435 212.618 2.00925 218.032 2.00925C219.974 2.00925 221.798 2.21309 223.505 2.62076C225.27 3.02843 226.741 3.66906 227.918 4.54265L224.917 12.7544C224.093 12.1137 223.152 11.6478 222.092 11.3566C221.033 11.0072 219.944 10.8325 218.826 10.8325C216.531 10.8325 214.795 11.4731 213.618 12.7544C212.441 13.9774 211.853 15.841 211.853 18.3453V23.5868L212.206 28.4789V67.4409H201.172ZM193.404 29.8767V21.1408H224.829V29.8767H193.404Z" fill="#F0F0F0"/>
<path d="M234.354 85C232.059 85 229.764 84.6214 227.469 83.8643C225.174 83.1072 223.261 82.0589 221.731 80.7194L226.145 72.6824C227.263 73.6725 228.528 74.4587 229.94 75.0411C231.353 75.6235 232.794 75.9147 234.266 75.9147C236.266 75.9147 237.885 75.4197 239.121 74.4296C240.356 73.4395 241.504 71.7797 242.563 69.4502L245.3 63.335L246.182 62.0247L264.013 20.7914H274.606L252.538 71.1973C251.067 74.6917 249.419 77.458 247.595 79.4964C245.829 81.5348 243.828 82.9616 241.592 83.777C239.415 84.5923 237.002 85 234.354 85ZM244.064 69.1007L222.79 20.7914H234.266L251.567 61.0637L244.064 69.1007Z" fill="#F0F0F0"/>
<path d="M276.869 67.7392C275.893 67.7392 275.061 67.4125 274.372 66.7591C273.683 66.0773 273.338 65.225 273.338 64.2022C273.338 63.1227 273.683 62.2704 274.372 61.6454C275.061 60.992 275.893 60.6653 276.869 60.6653C277.845 60.6653 278.678 60.992 279.367 61.6454C280.056 62.2704 280.4 63.1227 280.4 64.2022C280.4 65.225 280.056 66.0773 279.367 66.7591C278.678 67.4125 277.845 67.7392 276.869 67.7392Z" fill="#F0F0F0"/>
<path d="M284.368 67.4409V44.685H289.75V67.4409H284.368ZM287.08 40.935C286.076 40.935 285.243 40.6225 284.583 39.9975C283.951 39.3725 283.636 38.6196 283.636 37.739C283.636 36.8299 283.951 36.077 284.583 35.4804C285.243 34.8554 286.076 34.5429 287.08 34.5429C288.085 34.5429 288.903 34.8412 289.535 35.4378C290.195 36.006 290.525 36.7304 290.525 37.6111C290.525 38.5486 290.209 39.3441 289.578 39.9975C288.946 40.6225 288.114 40.935 287.08 40.935Z" fill="#F0F0F0"/>
<path d="M305.254 67.7392C303.044 67.7392 301.049 67.2562 299.269 66.2903C297.518 65.296 296.14 63.9324 295.135 62.1994C294.131 60.4664 293.628 58.4209 293.628 56.063C293.628 53.705 294.131 51.6595 295.135 49.9266C296.14 48.1936 297.518 46.8441 299.269 45.8782C301.049 44.9123 303.044 44.4293 305.254 44.4293C307.178 44.4293 308.9 44.8555 310.421 45.7078C311.943 46.5316 313.149 47.7959 314.039 49.5004C314.928 51.205 315.373 53.3925 315.373 56.063C315.373 58.705 314.943 60.8926 314.082 62.6255C313.22 64.3301 312.029 65.6085 310.508 66.4608C308.986 67.3131 307.235 67.7392 305.254 67.7392ZM305.9 63.1795C307.192 63.1795 308.34 62.8954 309.345 62.3272C310.378 61.759 311.197 60.9352 311.799 59.8556C312.431 58.7761 312.747 57.5118 312.747 56.063C312.747 54.5857 312.431 53.3215 311.799 52.2703C311.197 51.1908 310.378 50.3669 309.345 49.7987C308.34 49.2305 307.192 48.9464 305.9 48.9464C304.608 48.9464 303.446 49.2305 302.412 49.7987C301.408 50.3669 300.589 51.1908 299.958 52.2703C299.355 53.3215 299.054 54.5857 299.054 56.063C299.054 57.5118 299.355 58.7761 299.958 59.8556C300.589 60.9352 301.408 61.759 302.412 62.3272C303.446 62.8954 304.608 63.1795 305.9 63.1795ZM312.876 67.4409V62.0715L313.091 56.0204L312.661 49.9692V35.8213H318V67.4409H312.876Z" fill="#F0F0F0"/>
</svg>
